<mxfile host="Electron" agent="Mozilla/5.0 (X11; Linux x86_64) AppleWebKit/537.36 (KHTML, like Gecko) draw.io/24.7.5 Chrome/126.0.6478.183 Electron/31.3.0 Safari/537.36" version="24.7.5">
  <diagram name="第 1 页" id="huckOj3Etd9BhcJPRhfS">
    <mxGraphModel dx="482" dy="316" grid="1" gridSize="10" guides="1" tooltips="1" connect="1" arrows="1" fold="1" page="0" pageScale="1" pageWidth="827" pageHeight="1169" math="0" shadow="0">
      <root>
        <mxCell id="0" />
        <mxCell id="1" parent="0" />
        <mxCell id="jQNSrvGc9LsseK20iLqO-2" value="&lt;font face=&quot;Ubuntu mono&quot;&gt;IMEM&lt;/font&gt;" style="rounded=0;whiteSpace=wrap;html=1;labelPosition=left;verticalLabelPosition=bottom;align=right;verticalAlign=top;spacingTop=-25;spacingBottom=0;spacingRight=-35;spacingLeft=0;" vertex="1" parent="1">
          <mxGeometry x="120" y="120" width="80" height="120" as="geometry" />
        </mxCell>
        <mxCell id="jQNSrvGc9LsseK20iLqO-3" value="&lt;font face=&quot;Ubuntu mono&quot;&gt;addr&lt;/font&gt;" style="text;strokeColor=none;align=center;fillColor=none;html=1;verticalAlign=middle;whiteSpace=wrap;rounded=0;" vertex="1" parent="1">
          <mxGeometry x="120" y="155" width="30" height="10" as="geometry" />
        </mxCell>
        <mxCell id="jQNSrvGc9LsseK20iLqO-4" value="&lt;font face=&quot;Ubuntu mono&quot;&gt;inst&lt;/font&gt;" style="text;strokeColor=none;align=center;fillColor=none;html=1;verticalAlign=middle;whiteSpace=wrap;rounded=0;" vertex="1" parent="1">
          <mxGeometry x="170" y="175" width="30" height="10" as="geometry" />
        </mxCell>
      </root>
    </mxGraphModel>
  </diagram>
</mxfile>
